<svg width="111" height="87" viewBox="0 0 111 87" fill="none" xmlns="http://www.w3.org/2000/svg">
<path d="M29.1422 0.104935C29.043 0.154572 28.9529 0.213234 28.9394 0.226776C28.9168 0.253853 28.2046 0.664513 27.7043 0.939789C27.5555 1.02553 27.4203 1.10676 27.4068 1.1203C27.3932 1.13835 27.3166 1.17896 27.24 1.21056C27.1588 1.24665 27.0912 1.28275 27.0912 1.3008C27.0912 1.31886 27.0191 1.35947 26.9334 1.39106C26.8478 1.42265 26.7757 1.46326 26.7757 1.48583C26.7757 1.50388 26.7216 1.54449 26.654 1.57157C26.5818 1.60316 26.4466 1.67536 26.3474 1.73403C26.2483 1.79721 26.1266 1.8649 26.077 1.89198C26.0274 1.91454 25.8877 1.99577 25.7614 2.07249C25.6397 2.14469 25.4459 2.24848 25.3332 2.30714C25.2205 2.36581 25.1214 2.41997 25.1078 2.4335C25.0808 2.4651 24.8013 2.62756 24.4768 2.80806C24.3415 2.88026 24.2018 2.96149 24.1702 2.98857C24.0891 3.05175 23.8457 3.18713 23.7014 3.2458C23.6293 3.27739 23.5752 3.318 23.5752 3.33605C23.5752 3.35861 23.5076 3.39923 23.422 3.42631C23.3363 3.45338 23.2552 3.50302 23.2416 3.53912C23.2281 3.57523 23.1785 3.60682 23.1335 3.60682C23.0884 3.60682 23.0027 3.64743 22.9441 3.69707C22.8855 3.74671 22.8134 3.78732 22.7819 3.78732C22.7503 3.78732 22.7052 3.8144 22.6872 3.84148C22.6692 3.87307 22.552 3.94978 22.4258 4.01296C22.304 4.07162 22.0877 4.19347 21.9524 4.28373C21.8172 4.37399 21.6369 4.47326 21.5603 4.50485C21.4791 4.53644 21.4115 4.57706 21.4115 4.59511C21.4115 4.61316 21.3394 4.65377 21.2538 4.68536C21.1681 4.71695 21.096 4.75757 21.096 4.77561C21.096 4.79366 21.0239 4.83428 20.9382 4.86587C20.8526 4.89746 20.7804 4.93807 20.7804 4.96064C20.7804 4.9832 20.7444 5.01028 20.6948 5.02833C20.528 5.08248 20.4289 5.21786 20.2936 5.59242C20.217 5.80452 20.0998 6.1159 20.0367 6.29189C19.9691 6.46338 19.906 6.6484 19.8924 6.69804C19.8834 6.74768 19.8564 6.82891 19.8338 6.87855C19.8113 6.92819 19.7527 7.09065 19.6941 7.23957C19.64 7.38849 19.5679 7.57352 19.5363 7.65474C19.5003 7.73146 19.4732 7.82172 19.4732 7.85782C19.4732 7.8894 19.4462 7.96612 19.4146 8.0293C19.3831 8.09248 19.329 8.2414 19.2929 8.35873C19.2614 8.48058 19.1982 8.65205 19.1487 8.74231C19.1036 8.83257 19.0675 8.94087 19.0675 8.986C19.0675 9.03113 19.0405 9.11687 19.0044 9.17102C18.9684 9.22517 18.8872 9.43276 18.8196 9.63132C18.7565 9.82988 18.6754 10.051 18.6393 10.1277C18.6077 10.1999 18.5672 10.3218 18.5491 10.3985C18.5311 10.4707 18.4905 10.5925 18.459 10.6693C18.3328 10.9626 18.2111 11.3055 18.2111 11.3732C18.2111 11.4139 18.184 11.4725 18.1525 11.4996C18.1164 11.5267 18.0533 11.6982 18.0082 11.8877C17.9586 12.0727 17.9091 12.2261 17.891 12.2261C17.873 12.2261 17.8369 12.3209 17.8054 12.4382C17.7783 12.5556 17.7378 12.6729 17.7197 12.7C17.6972 12.7225 17.6566 12.8534 17.6206 12.9798C17.589 13.1106 17.5529 13.2189 17.5349 13.2189C17.5214 13.2189 17.4853 13.3137 17.4493 13.431C17.4177 13.5529 17.3681 13.6973 17.3321 13.7605C17.3005 13.8237 17.2599 13.95 17.2419 14.0403C17.2239 14.135 17.1968 14.2118 17.1788 14.2118C17.1608 14.2118 17.1202 14.3155 17.0887 14.4374C17.0571 14.5637 16.994 14.7443 16.9444 14.8435C16.8993 14.9383 16.8588 15.0556 16.8588 15.1053C16.8588 15.1504 16.8407 15.2046 16.8182 15.2271C16.7776 15.2722 16.6153 15.701 16.5342 15.9717C16.5117 16.0575 16.4711 16.1522 16.4531 16.1748C16.4305 16.2019 16.39 16.3237 16.3584 16.4456C16.3314 16.5719 16.2908 16.6892 16.2728 16.7163C16.2547 16.7389 16.2142 16.8427 16.1871 16.942C16.1556 17.0412 16.106 17.1811 16.0699 17.2579C16.0384 17.3301 15.9888 17.4609 15.9617 17.5376C15.8355 17.9077 15.804 17.9889 15.7318 18.1604C15.6868 18.2597 15.6372 18.3905 15.6191 18.4537C15.6011 18.5169 15.5605 18.6252 15.529 18.7019C15.4974 18.7741 15.4569 18.914 15.4388 19.0043C15.4208 19.099 15.3893 19.1758 15.3712 19.1758C15.3532 19.1758 15.3261 19.2435 15.3081 19.3202C15.2811 19.4601 15.0963 19.9655 15.0061 20.1325C14.9836 20.1776 14.9655 20.2453 14.9655 20.2814C14.9655 20.3175 14.9475 20.3852 14.925 20.4303C14.8393 20.5928 14.7401 20.8364 14.7401 20.8906C14.7401 20.9222 14.7131 21.0079 14.677 21.0847C14.641 21.1659 14.5869 21.3103 14.5553 21.4096C14.5283 21.5088 14.4652 21.6713 14.4246 21.7706C14.3795 21.8699 14.3209 22.0323 14.2894 22.1316C14.2353 22.3257 14.2082 22.4024 14.091 22.6641C14.0505 22.7589 14.0189 22.8536 14.0189 22.8807C14.0189 22.9078 13.9783 23.0116 13.9333 23.1154C13.8837 23.2192 13.8341 23.3816 13.8161 23.4719C13.798 23.5667 13.7665 23.6434 13.7439 23.6434C13.7214 23.6434 13.7034 23.684 13.7034 23.7291C13.7034 23.7788 13.6853 23.8329 13.6583 23.8464C13.6358 23.86 13.6132 23.9322 13.6132 23.9999C13.6132 24.0676 13.5952 24.1398 13.5772 24.1623C13.5546 24.1894 13.5095 24.2797 13.478 24.3654C13.3247 24.7896 13.2391 25.0288 13.203 25.11C13.1309 25.2995 12.9731 25.7508 12.9326 25.8997C12.9055 25.9855 12.8559 26.1209 12.8199 26.2021C12.7838 26.2788 12.7568 26.3646 12.7568 26.3916C12.7568 26.4232 12.7162 26.5225 12.6666 26.6218C12.617 26.7211 12.5765 26.8519 12.5765 26.9151C12.5765 26.9783 12.5584 27.0279 12.5359 27.0279C12.5133 27.0279 12.4547 27.1543 12.4007 27.3077C12.2699 27.7184 12.1753 27.9846 12.1257 28.0884C12.0716 28.2012 11.9634 28.5081 11.8733 28.8105C11.8327 28.9323 11.7831 29.0541 11.7606 29.0767C11.738 29.1038 11.72 29.1579 11.72 29.2031C11.72 29.2482 11.702 29.3204 11.6794 29.3655C11.5938 29.528 11.4946 29.7717 11.4946 29.8258C11.4946 29.8574 11.4676 29.9432 11.4315 30.0199C11.3954 30.1011 11.3459 30.2365 11.3143 30.3222C11.2827 30.408 11.1881 30.6742 11.1024 30.9089C11.0168 31.1435 10.9266 31.4098 10.8996 31.4955C10.8771 31.5813 10.8365 31.6715 10.8185 31.6986C10.8004 31.7212 10.7599 31.852 10.7238 31.9784C10.6922 32.1093 10.6517 32.2176 10.6381 32.2176C10.6246 32.2176 10.5841 32.3259 10.5525 32.4522C10.5164 32.5831 10.4759 32.714 10.4533 32.7365C10.4353 32.7636 10.3947 32.8809 10.3677 32.9983C10.3361 33.1156 10.2956 33.2104 10.273 33.2104C10.255 33.2104 10.2234 33.2871 10.2054 33.3773C10.1919 33.4721 10.1513 33.5894 10.1198 33.6391C10.0927 33.6887 10.0386 33.8376 10.0071 33.964C9.97101 34.0949 9.93044 34.2032 9.91692 34.2032C9.90339 34.2032 9.86283 34.307 9.83127 34.4333C9.79521 34.5597 9.74112 34.7176 9.70956 34.7853C9.6735 34.8485 9.64646 34.9342 9.64646 34.9703C9.64646 35.011 9.61941 35.0787 9.58786 35.1283C9.5563 35.1779 9.50672 35.2998 9.47516 35.3991C9.4391 35.4983 9.39853 35.6202 9.37599 35.6698C9.35796 35.7195 9.31289 35.8503 9.28133 35.9631C9.24978 36.076 9.20019 36.2068 9.16864 36.2565C9.13709 36.3061 9.09652 36.4234 9.08299 36.5137C9.06496 36.6085 9.03792 36.6852 9.01989 36.6852C9.00186 36.6852 8.96129 36.7845 8.92973 36.9108C8.89818 37.0327 8.8531 37.1455 8.83056 37.1635C8.80803 37.1771 8.79 37.2312 8.79 37.2899C8.79 37.344 8.77196 37.4072 8.75393 37.4343C8.73139 37.4569 8.65927 37.6464 8.59166 37.8585C8.52404 38.0706 8.45192 38.2601 8.42938 38.2872C8.41135 38.3098 8.3798 38.4045 8.36176 38.4903C8.34373 38.576 8.31218 38.6663 8.29415 38.6934C8.27612 38.7159 8.23555 38.8197 8.204 38.919C8.17695 39.0183 8.11384 39.1852 8.06426 39.289C8.01918 39.3973 7.97861 39.5102 7.97861 39.5417C7.97861 39.5733 7.93804 39.6862 7.88846 39.79C7.83887 39.8892 7.7983 40.0111 7.7983 40.0607C7.7983 40.1058 7.76675 40.1826 7.73069 40.2322C7.69463 40.2773 7.66307 40.3495 7.66307 40.3856C7.66307 40.4217 7.63603 40.503 7.60447 40.5661C7.57292 40.6293 7.51883 40.7782 7.48277 40.9046C7.4467 41.0264 7.39261 41.1799 7.36106 41.243C7.3295 41.3062 7.28893 41.4326 7.27541 41.5228C7.25738 41.6176 7.23033 41.6943 7.2123 41.6943C7.18976 41.6943 7.16272 41.753 7.14469 41.8297C7.13117 41.9019 7.07707 42.0418 7.032 42.1366C6.98692 42.2313 6.93283 42.3712 6.9148 42.4434C6.89677 42.5156 6.86972 42.5924 6.85169 42.6194C6.83366 42.642 6.79309 42.7729 6.75703 42.8992C6.72547 43.0301 6.6849 43.1384 6.67138 43.1384C6.65786 43.1384 6.61729 43.2422 6.58573 43.3685C6.54967 43.4949 6.49558 43.6529 6.46403 43.7205C6.42797 43.7837 6.40092 43.8695 6.40092 43.9056C6.40092 43.9417 6.36937 44.0139 6.3333 44.059C6.29724 44.1086 6.26569 44.1899 6.26569 44.244C6.26569 44.2982 6.24766 44.3568 6.22963 44.3839C6.2116 44.4065 6.16652 44.5058 6.13497 44.605C6.10341 44.7043 6.06284 44.8262 6.0403 44.8758C5.95015 45.0789 5.30555 46.8704 5.28752 46.9742C5.274 47.0374 5.24695 47.1051 5.22892 47.1322C5.21089 47.1547 5.12975 47.3713 5.04861 47.606C4.97198 47.8407 4.87732 48.1024 4.83675 48.1836C4.80069 48.2649 4.76012 48.4048 4.7466 48.4905C4.73307 48.5717 4.70603 48.6439 4.68349 48.6439C4.66546 48.6439 4.62489 48.7297 4.59784 48.8335C4.5708 48.9418 4.52121 49.0862 4.48515 49.1629C4.4536 49.2351 4.34091 49.542 4.23723 49.8398C4.13355 50.1377 4.01635 50.4806 3.97127 50.607C3.9262 50.7288 3.86309 50.9048 3.83154 50.9906C3.79998 51.0763 3.75491 51.1666 3.73237 51.1891C3.71434 51.2162 3.69631 51.2794 3.69631 51.3335C3.69631 51.3922 3.67827 51.4509 3.65123 51.4644C3.62869 51.4779 3.60615 51.5411 3.60615 51.5998C3.60615 51.6585 3.58812 51.7171 3.56558 51.7307C3.54304 51.7487 3.49797 51.8615 3.46641 51.9834C3.43486 52.1097 3.39429 52.209 3.37626 52.209C3.35823 52.209 3.33118 52.2857 3.31315 52.376C3.29512 52.4707 3.24554 52.6287 3.20046 52.728C3.15538 52.8272 3.1058 52.9581 3.08777 53.0213C3.07424 53.0845 3.02015 53.2199 2.97057 53.3237C2.92549 53.432 2.88492 53.5538 2.88492 53.5989C2.88492 53.6441 2.84435 53.7569 2.79477 53.8562C2.74518 53.9554 2.70461 54.0683 2.70461 54.1134C2.70461 54.1585 2.68658 54.1946 2.66855 54.1946C2.64601 54.1946 2.60544 54.3029 2.57389 54.4293C2.53783 54.5601 2.50177 54.6865 2.48374 54.7136C2.43415 54.7993 2.344 55.0746 2.344 55.1513C2.344 55.1964 2.32597 55.2325 2.29892 55.2325C2.27638 55.2325 2.23581 55.3183 2.20426 55.4221C2.17721 55.5304 2.12763 55.6658 2.09608 55.7289C2.06452 55.7921 2.02395 55.914 2.00592 55.9997C1.98789 56.0854 1.95634 56.1757 1.93831 56.2028C1.92028 56.2253 1.87971 56.3291 1.84815 56.4284C1.82111 56.5277 1.76701 56.6721 1.73095 56.7533C1.69489 56.83 1.66785 56.9158 1.66785 56.9474C1.66785 56.979 1.63629 57.0647 1.60023 57.1414C1.56417 57.2227 1.50557 57.3671 1.47401 57.4663C1.26215 58.053 1.04128 58.6577 0.996199 58.766C0.969153 58.8337 0.933092 58.9465 0.919569 59.0142C0.901538 59.0819 0.874492 59.1541 0.856461 59.1812C0.833923 59.2037 0.797861 59.2985 0.775323 59.3843C0.748276 59.47 0.676153 59.6821 0.608538 59.8581C0.54543 60.0296 0.459784 60.2642 0.423723 60.3771C0.383154 60.4899 0.329061 60.6388 0.293 60.7155C0.261446 60.7877 0.220877 60.9005 0.202846 60.9637C0.189323 61.0269 0.157769 61.1171 0.135231 61.1668C0.0676153 61.3338 0 61.5639 0 61.6451C0 61.7128 0.2344 62.1054 0.320046 62.1822C0.333569 62.1957 0.450769 62.3672 0.581492 62.5612C0.712215 62.7598 0.847446 62.9493 0.883507 62.9809C0.919569 63.017 0.946615 63.0621 0.946615 63.0802C0.946615 63.0982 0.982676 63.1569 1.02775 63.2111C1.06832 63.2652 1.16749 63.3916 1.23961 63.4954C1.31625 63.5992 1.44246 63.7752 1.5236 63.8835C1.60023 63.9918 1.66785 64.1001 1.66785 64.1226C1.66785 64.1497 1.6994 64.1813 1.73546 64.1948C1.77152 64.2129 1.80308 64.24 1.80308 64.2625C1.80308 64.3212 2.03748 64.6777 2.10509 64.7228C2.13664 64.7409 2.16369 64.7815 2.16369 64.8131C2.16369 64.8627 2.27638 65.0207 2.45218 65.2192C2.49275 65.2598 2.52431 65.3275 2.52431 65.3636C2.52431 65.3997 2.54684 65.4313 2.56938 65.4313C2.59643 65.4313 2.61446 65.4539 2.61446 65.4765C2.61446 65.5261 2.65954 65.5848 2.80829 65.7517C2.84886 65.7969 2.88492 65.8555 2.88492 65.8736C2.88492 65.8916 2.94352 65.9774 3.02015 66.0631C3.09228 66.1489 3.15088 66.2346 3.15538 66.2526C3.15538 66.2887 3.25455 66.4196 3.37175 66.5369C3.3988 66.573 3.42584 66.6137 3.42584 66.6272C3.42584 66.6633 3.68729 67.0424 3.79998 67.1642C3.84055 67.2139 3.87661 67.277 3.87661 67.3086C3.87661 67.3402 3.89464 67.3718 3.91267 67.3808C3.94874 67.3944 4.23723 67.8095 4.23723 67.8502C4.23723 67.8592 4.2778 67.9133 4.32738 67.9675C4.50318 68.166 4.55277 68.2292 4.55277 68.2518C4.55277 68.2698 4.82774 68.685 4.8683 68.7256C4.88183 68.7392 5.04411 68.9693 5.22892 69.2446C5.40923 69.5154 5.66617 69.8809 5.79238 70.0569C5.9186 70.2284 6.0358 70.4089 6.05383 70.4495C6.06735 70.4946 6.10341 70.5307 6.13046 70.5307C6.153 70.5307 6.17553 70.5533 6.17553 70.5804C6.17553 70.6074 6.26118 70.7428 6.36937 70.8827C6.47755 71.0226 6.57672 71.176 6.59475 71.2167C6.60827 71.2618 6.63983 71.2979 6.66237 71.2979C6.6849 71.2979 6.72998 71.3566 6.76153 71.4333C6.79309 71.5055 6.83366 71.5687 6.85169 71.5687C6.86972 71.5687 6.91029 71.6273 6.94184 71.704C6.9734 71.7762 7.01397 71.8394 7.032 71.8394C7.05003 71.8394 7.0906 71.9026 7.12215 71.9748C7.1537 72.047 7.19427 72.1102 7.21681 72.1102C7.23935 72.1102 7.27992 72.1553 7.30246 72.2095C7.325 72.2681 7.43769 72.4351 7.55038 72.584C7.66307 72.7329 7.77126 72.8999 7.7983 72.9586C7.82084 73.0127 7.87493 73.0714 7.911 73.0849C7.94706 73.103 7.97861 73.1391 7.97861 73.1662C7.97861 73.1977 8.01467 73.2609 8.05975 73.3106C8.10032 73.3557 8.204 73.4956 8.28063 73.6219C8.36176 73.7438 8.4429 73.8656 8.46093 73.8927C8.48347 73.9153 8.62772 74.1319 8.78549 74.3665C8.94776 74.6012 9.0875 74.8043 9.10103 74.8178C9.15061 74.8584 9.33092 75.1292 9.33092 75.1563C9.33092 75.1743 9.35796 75.2104 9.38952 75.242C9.46164 75.3187 9.56983 75.4677 9.74563 75.7429C9.82676 75.8648 9.91692 75.9956 9.94847 76.0272C9.97552 76.0543 10.0161 76.122 10.0296 76.1716C10.0431 76.2213 10.0792 76.2619 10.1017 76.2619C10.1243 76.2619 10.1648 76.3115 10.1874 76.3747C10.2099 76.4379 10.264 76.5011 10.3001 76.5146C10.3361 76.5327 10.3677 76.5643 10.3677 76.5913C10.3677 76.6455 10.5931 76.9884 10.6607 77.0381C10.7463 77.1013 10.9852 77.0742 11.0934 76.9884C11.152 76.9433 11.2467 76.8937 11.3008 76.8756C11.3594 76.8576 11.4315 76.817 11.4631 76.7899C11.5397 76.7177 11.747 76.6004 11.9589 76.5056C12.0491 76.465 12.1257 76.4153 12.1257 76.3928C12.1257 76.3702 12.1527 76.3522 12.1843 76.3522C12.2158 76.3522 12.288 76.3115 12.3421 76.2619C12.3961 76.2123 12.4683 76.1716 12.4998 76.1716C12.5359 76.1716 12.59 76.1401 12.6215 76.0994C12.6576 76.0633 12.7523 76.0002 12.8424 75.9641C12.9281 75.928 13.0137 75.8828 13.0272 75.8648C13.0407 75.8422 13.1219 75.7926 13.2075 75.7474C13.2932 75.7023 13.4464 75.6211 13.5456 75.5579C13.6448 75.4992 13.7755 75.427 13.8386 75.3955C13.9017 75.3639 13.9783 75.3142 14.0099 75.2826C14.0415 75.251 14.1181 75.2104 14.1812 75.1969C14.2398 75.1834 14.2894 75.1518 14.2894 75.1337C14.2894 75.1157 14.357 75.075 14.4381 75.0389C14.5148 75.0074 14.5914 74.9667 14.6049 74.9487C14.6184 74.9306 14.7492 74.8494 14.8979 74.7727C15.0467 74.6915 15.1954 74.6057 15.227 74.5786C15.2901 74.529 15.529 74.3936 15.6777 74.3259C15.7318 74.2989 15.7769 74.2582 15.7769 74.2357C15.7769 74.2131 15.84 74.1815 15.9167 74.1635C15.9933 74.1454 16.0654 74.1048 16.0789 74.0687C16.0925 74.0326 16.1285 74.0055 16.1601 74.0055C16.1916 74.0055 16.2908 73.9559 16.3809 73.8927C16.4711 73.8295 16.5973 73.7664 16.6559 73.7528C16.719 73.7393 16.7686 73.7077 16.7686 73.6896C16.7686 73.6671 16.8092 73.6355 16.8588 73.6219C16.9083 73.6084 16.976 73.5678 17.0075 73.5407C17.0932 73.4595 17.3095 73.3331 17.5034 73.2564C17.5935 73.2158 17.6701 73.1662 17.6701 73.1481C17.6701 73.1301 17.7333 73.0894 17.8054 73.0579C17.882 73.0263 17.9406 72.9857 17.9406 72.9631C17.9406 72.9405 17.9812 72.9225 18.0308 72.9225C18.0803 72.9225 18.1615 72.8819 18.2066 72.8367C18.2516 72.7916 18.3328 72.7374 18.3869 72.7194C18.4365 72.7059 18.5086 72.6652 18.5401 72.6382C18.5717 72.6066 18.734 72.5118 18.9007 72.4261C19.0675 72.3403 19.2028 72.2546 19.2028 72.241C19.2028 72.2275 19.2749 72.1914 19.3605 72.1553C19.4462 72.1192 19.5183 72.0786 19.5183 72.056C19.5183 72.038 19.5363 72.0199 19.5589 72.0199C19.5814 72.0199 19.7617 71.9252 19.9555 71.8033C20.1494 71.686 20.4018 71.5416 20.5235 71.4784C20.6407 71.4152 20.7354 71.352 20.7354 71.334C20.7354 71.3204 20.8075 71.2798 20.8931 71.2528C20.9788 71.2257 21.0509 71.1851 21.0509 71.1625C21.0509 71.1399 21.123 71.0993 21.2087 71.0722C21.2943 71.0452 21.3664 71.0046 21.3664 70.982C21.3664 70.9594 21.4341 70.9188 21.5197 70.8917C21.6054 70.8647 21.6865 70.815 21.7 70.7789C21.7135 70.7428 21.7631 70.7112 21.8127 70.7112C21.8623 70.7112 21.9164 70.6887 21.9344 70.6616C21.9479 70.6345 22.0336 70.5849 22.1147 70.5488C22.2004 70.5127 22.268 70.4675 22.268 70.4495C22.268 70.4314 22.3401 70.3863 22.4258 70.3547C22.5114 70.3231 22.5835 70.2825 22.5835 70.26C22.5835 70.2419 22.6376 70.2013 22.7097 70.1742C22.7774 70.1471 22.9126 70.0749 23.0118 70.0118C23.1109 69.9531 23.3183 69.8403 23.476 69.759C23.6293 69.6823 23.7555 69.6011 23.7555 69.5785C23.7555 69.556 23.7961 69.5379 23.8457 69.5379C23.8953 69.5379 23.9358 69.5199 23.9358 69.4973C23.9358 69.4747 24.0034 69.4341 24.0846 69.398C24.1612 69.3664 24.2424 69.3168 24.2649 69.2852C24.2829 69.2536 24.3596 69.2175 24.4317 69.1995C24.5083 69.1814 24.5669 69.1543 24.5669 69.1318C24.5669 69.1137 24.63 69.0731 24.7021 69.0415C24.7788 69.0099 24.8374 68.9738 24.8374 68.9558C24.8374 68.9377 24.9095 68.8971 24.9951 68.8655C25.0808 68.8339 25.1529 68.7933 25.1529 68.7708C25.1529 68.7527 25.2025 68.7211 25.2611 68.7076C25.3242 68.694 25.4008 68.6534 25.4324 68.6218C25.4955 68.5587 25.6623 68.4594 25.9147 68.342C26.0004 68.3014 26.095 68.2382 26.1311 68.2021C26.1671 68.166 26.2122 68.139 26.2348 68.139C26.2573 68.139 26.3024 68.1119 26.3339 68.0803C26.37 68.0532 26.5323 67.9539 26.699 67.8682C26.8658 67.7825 27.0011 67.6967 27.0011 67.6832C27.0011 67.6696 27.0732 67.6335 27.1588 67.5974C27.2445 67.5613 27.3166 67.5207 27.3166 67.4982C27.3166 67.4801 27.3436 67.4621 27.3752 67.4621C27.4203 67.4621 27.6952 67.2951 27.8801 67.1597C27.9071 67.1371 28.0198 67.0785 28.1325 67.0198C28.2452 66.9611 28.5066 66.8167 28.714 66.6949C28.9213 66.5685 29.1062 66.4693 29.1287 66.4693C29.1467 66.4693 29.1648 66.4512 29.1648 66.4286C29.1648 66.4061 29.2369 66.361 29.3225 66.3294C29.4082 66.2978 29.4803 66.2572 29.4803 66.2391C29.4803 66.2211 29.5434 66.185 29.6155 66.1534C29.6922 66.1218 29.7508 66.0857 29.7508 66.0676C29.7508 66.0541 29.8139 66.0135 29.8905 65.9774C30.0257 65.9187 30.2466 65.7923 30.5982 65.5802C30.6929 65.5261 30.8191 65.4584 30.8912 65.4268C30.9588 65.3997 31.0129 65.3591 31.0129 65.3411C31.0129 65.3185 31.0805 65.2779 31.1662 65.2508C31.2518 65.2237 31.333 65.1741 31.3465 65.138C31.36 65.1019 31.4096 65.0703 31.4592 65.0703C31.5088 65.0703 31.5854 65.0342 31.6305 64.9846C31.6755 64.9394 31.7567 64.8853 31.8153 64.8717C31.8694 64.8537 31.9144 64.8221 31.9144 64.7995C31.9144 64.777 31.973 64.7499 32.0497 64.7319C32.1218 64.7138 32.1984 64.6777 32.2165 64.6461C32.239 64.6145 32.3201 64.5649 32.4013 64.5333C32.4779 64.4972 32.5455 64.4566 32.5455 64.434C32.5455 64.4114 32.5771 64.3934 32.6131 64.3934C32.6492 64.3934 32.7213 64.3528 32.7709 64.3031C32.8205 64.2535 32.8881 64.2129 32.9242 64.2129C32.9557 64.2129 33.0323 64.1768 33.091 64.1317C33.1496 64.0865 33.2532 64.0234 33.3254 63.9918C33.393 63.9557 33.4471 63.9105 33.4471 63.888C33.4471 63.8699 33.4831 63.8519 33.5327 63.8519C33.5778 63.8519 33.6409 63.8203 33.6724 63.7797C33.7085 63.7436 33.8032 63.6804 33.8933 63.6443C33.979 63.6082 34.0646 63.5631 34.0781 63.545C34.0917 63.527 34.1818 63.4728 34.281 63.4186C34.5469 63.2788 34.6777 63.202 34.7453 63.1434C34.7768 63.1118 34.8535 63.0712 34.9166 63.0576C34.9752 63.0441 35.0247 63.0125 35.0247 62.9944C35.0247 62.9764 35.1014 62.9268 35.196 62.8816C35.2862 62.841 35.4395 62.7643 35.5296 62.7101C35.6198 62.656 35.9037 62.489 36.1607 62.3446C36.4176 62.1957 36.634 62.0648 36.6475 62.0468C36.661 62.0287 36.7377 61.9881 36.8188 61.952C36.8954 61.9159 36.9631 61.8798 36.9631 61.8618C36.9631 61.8482 37.0352 61.8121 37.1208 61.776C37.2065 61.7399 37.2786 61.6993 37.2786 61.6812C37.2786 61.6677 37.3417 61.6271 37.4138 61.5955C37.4905 61.5639 37.5491 61.5233 37.5491 61.5007C37.5491 61.4782 37.5761 61.4601 37.6122 61.4601C37.6482 61.4601 37.806 61.3789 37.9593 61.2796C38.117 61.1803 38.374 61.0359 38.5317 60.9547C38.685 60.878 38.8112 60.7967 38.8112 60.7832C38.8112 60.7697 38.8833 60.7291 38.969 60.693C39.0546 60.6568 39.1267 60.6162 39.1267 60.6027C39.1267 60.5892 39.1944 60.5485 39.28 60.5124C39.4423 60.4493 39.564 60.2868 39.5144 60.2011C39.4919 60.165 38.2523 60.1514 35.196 60.1514C31.1346 60.1514 30.9137 60.1469 30.9453 60.0702C30.9588 60.0296 30.9859 59.9393 30.9994 59.8671C31.0129 59.7994 31.04 59.7453 31.058 59.7453C31.076 59.7453 31.1166 59.6325 31.1481 59.4971C31.1797 59.3617 31.2203 59.2489 31.2383 59.2489C31.2563 59.2489 31.2969 59.127 31.3284 58.9781C31.36 58.8292 31.4006 58.7073 31.4231 58.7073C31.4411 58.7073 31.4727 58.6397 31.4862 58.5584C31.5042 58.4817 31.5493 58.3734 31.5809 58.3238C31.6169 58.2741 31.644 58.1974 31.644 58.1568C31.644 58.1117 31.662 58.0395 31.6846 57.9943C31.7522 57.859 31.8153 57.6965 31.8739 57.5115C31.9009 57.4122 31.9415 57.3084 31.9595 57.2858C31.9776 57.2588 32.0181 57.1369 32.0497 57.0151C32.0812 56.8887 32.1263 56.7714 32.1443 56.7488C32.1669 56.7217 32.1849 56.6721 32.1849 56.636C32.1894 56.5954 32.2255 56.4826 32.2751 56.3833C32.3246 56.284 32.3607 56.1757 32.3652 56.1441C32.3652 56.1125 32.3832 56.0539 32.4058 56.0087C32.4959 55.8327 32.5906 55.589 32.5906 55.5349C32.5906 55.5033 32.6176 55.4311 32.6492 55.3679C32.6808 55.3047 32.7348 55.1513 32.7709 55.0295C32.8025 54.9031 32.843 54.7813 32.8611 54.7587C32.8791 54.7316 32.9197 54.6323 32.9512 54.5331C32.9783 54.4338 33.0414 54.2668 33.091 54.163C33.136 54.0547 33.1766 53.9193 33.1766 53.8562C33.1766 53.793 33.1946 53.7433 33.2172 53.7433C33.2397 53.7433 33.2848 53.6666 33.3118 53.5719C33.3389 53.4816 33.3794 53.3643 33.402 53.3146C33.4245 53.265 33.4651 53.1431 33.4966 53.0439C33.5237 52.9446 33.5643 52.8408 33.5823 52.8182C33.6003 52.7911 33.6409 52.6648 33.6769 52.5339C33.7085 52.4076 33.7491 52.2993 33.7626 52.2993C33.7761 52.2993 33.8167 52.191 33.8482 52.0601C33.8798 51.9337 33.9339 51.7803 33.97 51.7261C34.006 51.672 34.0331 51.5862 34.0331 51.5366C34.0331 51.487 34.0511 51.4328 34.0781 51.4193C34.1007 51.4057 34.1412 51.3065 34.1728 51.2027C34.1998 51.0989 34.2494 50.95 34.281 50.8777C34.3125 50.801 34.4072 50.5483 34.4838 50.3137C34.565 50.079 34.6551 49.8218 34.6912 49.7405C34.7272 49.6638 34.7543 49.5781 34.7543 49.5465C34.7543 49.5149 34.7813 49.4382 34.8174 49.375C34.9121 49.19 34.9616 49.0591 35.0969 48.6665C35.1645 48.4679 35.2997 48.0798 35.3944 47.8091C35.4935 47.5338 35.5837 47.2721 35.5972 47.2224C35.6153 47.1728 35.6378 47.1231 35.6513 47.1096C35.6693 47.0961 35.737 46.9246 35.8001 46.726C36.0164 46.0942 36.0615 45.9589 36.1066 45.8686C36.1291 45.819 36.1922 45.6475 36.2463 45.485C36.3004 45.3226 36.359 45.1736 36.3816 45.1511C36.4041 45.124 36.4221 45.0518 36.4221 44.9841C36.4221 44.9164 36.4492 44.8307 36.4852 44.7991C36.5168 44.763 36.5619 44.6637 36.5799 44.578C36.5979 44.4922 36.652 44.3388 36.6971 44.2305C36.7467 44.1267 36.7963 43.9733 36.8143 43.892C36.8278 43.8153 36.8684 43.707 36.8999 43.6574C36.9315 43.6077 36.9721 43.4904 36.9856 43.3956C37.0036 43.3054 37.0352 43.2287 37.0532 43.2287C37.0712 43.2287 37.1118 43.1249 37.1434 43.003C37.1749 42.8767 37.2155 42.7774 37.238 42.7774C37.2606 42.7774 37.2786 42.7277 37.2786 42.6646C37.2786 42.6014 37.2966 42.5156 37.3192 42.4705C37.3733 42.3667 37.4364 42.1998 37.504 42.0102C37.5355 41.9245 37.5761 41.8117 37.5941 41.762C37.6167 41.7124 37.6572 41.5905 37.6888 41.4913C37.7158 41.392 37.7564 41.2882 37.7744 41.2656C37.7925 41.2385 37.8195 41.1573 37.8375 41.0851C37.8556 41.0084 37.8961 40.8865 37.9322 40.8143C37.9638 40.7376 38.0133 40.6068 38.0449 40.521C38.0765 40.4353 38.126 40.2999 38.1576 40.2277C38.1937 40.151 38.2342 40.0336 38.2523 39.9614C38.2703 39.8892 38.3109 39.7764 38.3424 39.7132C38.3785 39.6501 38.4055 39.5688 38.4055 39.5372C38.4055 39.5056 38.4461 39.3928 38.4912 39.289C38.5407 39.1852 38.5903 39.0228 38.6084 38.928C38.6264 38.8378 38.6534 38.761 38.6715 38.761C38.7075 38.761 38.8112 38.4316 38.8112 38.3143C38.8112 38.2692 38.8428 38.2195 38.8788 38.2015C38.9149 38.1879 38.9464 38.1428 38.9464 38.1067C38.9464 38.0661 38.987 37.9488 39.0321 37.845C39.0817 37.7412 39.1313 37.5787 39.1493 37.4839C39.1673 37.3937 39.1989 37.317 39.2169 37.317C39.2349 37.317 39.2755 37.1951 39.3071 37.0462C39.3386 36.8973 39.3792 36.7754 39.3972 36.7754C39.4152 36.7754 39.4558 36.6626 39.4874 36.5272C39.5189 36.3919 39.573 36.2565 39.6091 36.2294C39.6406 36.2023 39.6677 36.1346 39.6677 36.0805C39.6677 36.0263 39.6947 35.9451 39.7308 35.8955C39.7623 35.8458 39.8164 35.6969 39.848 35.566C39.884 35.4397 39.9246 35.3314 39.9381 35.3314C39.9517 35.3314 39.9922 35.2276 40.0238 35.1012C40.0598 34.9749 40.1139 34.8169 40.1455 34.7492C40.1815 34.686 40.2086 34.6003 40.2086 34.5642C40.2086 34.5281 40.2492 34.4153 40.2987 34.316C40.3483 34.2167 40.3844 34.1039 40.3889 34.0633C40.3889 34.0272 40.4205 33.955 40.4565 33.9053C40.4926 33.8602 40.5241 33.7745 40.5241 33.7203C40.5241 33.6662 40.5467 33.6075 40.5692 33.594C40.5963 33.5804 40.6143 33.5263 40.6143 33.4766C40.6143 33.4315 40.6368 33.3909 40.6594 33.3909C40.6864 33.3909 40.7044 33.3548 40.7044 33.3097C40.7044 33.242 40.9208 32.5921 41.0605 32.2492C41.0876 32.177 41.1101 32.1048 41.1101 32.0822C41.1101 32.0416 41.2183 31.7798 41.2949 31.6219C41.3175 31.5768 41.3355 31.5181 41.3355 31.491C41.3355 31.4639 41.3671 31.3782 41.4031 31.3015C41.4798 31.13 41.5925 30.8141 41.6556 30.593C41.6826 30.5072 41.7277 30.3719 41.7637 30.2997C41.7953 30.2229 41.8404 30.1011 41.8584 30.0289C41.8764 29.9522 41.9305 29.8258 41.9756 29.7446C42.0207 29.6634 42.0567 29.537 42.0567 29.4648C42.0567 29.3926 42.0838 29.3159 42.1153 29.2978C42.1424 29.2798 42.228 29.0902 42.2957 28.8782C42.3678 28.666 42.4444 28.454 42.4624 28.4043C42.485 28.3547 42.5255 28.2328 42.5526 28.1335C42.5841 28.0343 42.6337 27.8899 42.6698 27.8086C42.7059 27.7319 42.7464 27.6056 42.7599 27.5288C42.778 27.4521 42.8185 27.3664 42.8501 27.3393C42.8862 27.3122 42.9132 27.2355 42.9132 27.1678C42.9132 27.1001 42.9312 27.0279 42.9583 27.0009C43.0079 26.9512 43.3775 25.9313 43.4767 25.5658C43.5127 25.444 43.5623 25.3221 43.5849 25.2995C43.6119 25.2725 43.6344 25.2048 43.6344 25.1506C43.6344 25.092 43.657 25.0333 43.6795 25.0198C43.7066 25.0062 43.7246 24.9566 43.7246 24.916C43.7246 24.8708 43.7652 24.758 43.8147 24.6587C43.8643 24.5595 43.9049 24.4557 43.9049 24.4241C43.9049 24.388 43.9319 24.3158 43.968 24.2616C44.0041 24.2075 44.0446 24.0901 44.0627 24.0044C44.0807 23.9187 44.1123 23.8239 44.1303 23.8013C44.1528 23.7742 44.1889 23.6659 44.2204 23.5531C44.2475 23.4403 44.3106 23.2643 44.3602 23.1605C44.4053 23.0522 44.4458 22.9168 44.4458 22.8536C44.4458 22.7905 44.4639 22.7408 44.4864 22.7408C44.5089 22.7408 44.554 22.6641 44.5856 22.5693C44.6126 22.4791 44.6532 22.3798 44.6712 22.3572C44.6892 22.3302 44.7298 22.2038 44.7659 22.0729C44.7974 21.9466 44.838 21.8383 44.856 21.8383C44.8695 21.8383 44.9101 21.7164 44.9417 21.5675C44.9732 21.4186 45.0138 21.2967 45.0318 21.2967C45.0499 21.2967 45.0814 21.22 45.0994 21.1253C45.113 21.035 45.167 20.8816 45.2166 20.7868C45.2617 20.692 45.3023 20.5792 45.3023 20.5341C45.3023 20.489 45.3293 20.4258 45.3609 20.3987C45.3969 20.3716 45.451 20.2363 45.4826 20.1009C45.5141 19.9655 45.5547 19.8527 45.5727 19.8527C45.5863 19.8527 45.6268 19.7444 45.6584 19.6135C45.6945 19.4871 45.735 19.3563 45.7531 19.3337C45.7711 19.3066 45.8116 19.1938 45.8432 19.072C45.8748 18.9546 45.9153 18.8463 45.9379 18.8373C45.9559 18.8238 45.9829 18.7335 46.001 18.6387C46.019 18.5395 46.0596 18.4357 46.0956 18.4041C46.1317 18.377 46.1587 18.3229 46.1587 18.2822C46.1587 18.201 46.2579 17.8987 46.2985 17.8671C46.312 17.8535 46.3481 17.7407 46.3841 17.6189C46.4157 17.4925 46.4562 17.3707 46.4743 17.3481C46.4923 17.321 46.5329 17.2217 46.5644 17.1225C46.5915 17.0232 46.6456 16.8788 46.6816 16.7976C46.7177 16.7208 46.7447 16.6306 46.7447 16.5945C46.7447 16.5584 46.7763 16.4907 46.8124 16.441C46.8484 16.3959 46.88 16.3102 46.88 16.256C46.88 16.2019 46.9025 16.1432 46.925 16.1297C46.9521 16.1161 46.9701 16.0529 46.9701 15.9943C46.9701 15.9356 46.9882 15.8769 47.0107 15.8634C47.0287 15.8499 47.0738 15.7416 47.1099 15.6242C47.1414 15.5024 47.1955 15.358 47.2271 15.2948C47.2586 15.2316 47.2992 15.1143 47.3127 15.0331C47.3262 14.9564 47.3578 14.8887 47.3758 14.8887C47.3938 14.8887 47.4344 14.7668 47.4705 14.6179C47.502 14.469 47.5471 14.3471 47.5651 14.3471C47.5832 14.3471 47.6012 14.3065 47.6012 14.2614C47.6012 14.2118 47.6237 14.1576 47.6463 14.1441C47.6733 14.1305 47.6914 14.0583 47.6914 13.9861C47.6914 13.9184 47.7094 13.8507 47.7274 13.8417C47.768 13.8282 47.8942 13.4987 48.1016 12.8805C48.1782 12.6549 48.2683 12.4112 48.2999 12.339C48.3314 12.2622 48.372 12.1359 48.39 12.0501C48.4081 11.9644 48.4532 11.8651 48.4847 11.829C48.5208 11.7974 48.5478 11.7072 48.5478 11.635C48.5478 11.5628 48.5658 11.5041 48.5884 11.5041C48.6109 11.5041 48.638 11.459 48.656 11.4003C48.6695 11.3417 48.7732 11.2514 48.9174 11.1702C49.0482 11.098 49.1654 11.0258 49.1789 11.0122C49.1924 10.9987 49.2736 10.949 49.3592 10.9084C49.4448 10.8633 49.5891 10.7821 49.6792 10.7279C49.7694 10.6693 49.9632 10.5564 50.1075 10.4707C50.2562 10.3849 50.3824 10.2992 50.387 10.2766C50.396 10.2586 50.432 10.2405 50.4681 10.2405C50.5042 10.2405 50.6574 10.1593 50.8062 10.06C50.9549 9.96075 51.0947 9.87952 51.1127 9.87952C51.1307 9.87952 51.2705 9.79829 51.4237 9.69901C51.5725 9.59973 51.7167 9.5185 51.7348 9.5185C51.7663 9.5185 52.0728 9.32446 52.2216 9.21615C52.2486 9.19359 52.3658 9.13041 52.483 9.07174C52.5957 9.01308 52.8301 8.87769 52.9969 8.76939C53.1682 8.66108 53.326 8.57083 53.3575 8.57083C53.3846 8.57083 53.4387 8.54375 53.4702 8.51216C53.5468 8.44447 53.7497 8.31812 53.957 8.21883C54.0427 8.17822 54.1374 8.12858 54.1599 8.10602C54.2951 8.00222 54.5476 7.8533 54.6287 7.82623C54.6828 7.81269 54.7234 7.7811 54.7234 7.75854C54.7234 7.74049 54.7774 7.69987 54.8496 7.67279C54.9172 7.64571 55.0028 7.6051 55.0389 7.57803C55.1967 7.46972 55.7015 7.16737 55.8277 7.10419C55.9044 7.06808 56.0261 6.99588 56.0982 6.95075C56.1748 6.90112 56.3371 6.81086 56.4588 6.74768C56.7248 6.61681 56.9276 6.49497 57.0088 6.41825C57.0403 6.39117 57.1124 6.35056 57.171 6.33251C57.2251 6.31446 57.2792 6.28738 57.2927 6.27384C57.3153 6.24677 57.455 6.15652 57.8337 5.9399C57.9193 5.89026 58.0545 5.81355 58.1267 5.76842C58.2033 5.72329 58.3115 5.66011 58.3746 5.63303C58.4332 5.61047 58.4963 5.56985 58.5098 5.5518C58.5233 5.53375 58.7397 5.39838 58.9966 5.24945C59.2536 5.10505 59.5376 4.93807 59.6277 4.88392C59.7179 4.82977 59.8261 4.7711 59.8621 4.75305C59.8982 4.735 59.9613 4.6989 59.9973 4.66731C60.0334 4.63572 60.1777 4.54998 60.3129 4.47778C60.4481 4.40557 60.7006 4.26116 60.8718 4.15737C61.0386 4.05358 61.1874 3.96783 61.1964 3.96783C61.2099 3.96783 61.3001 3.91368 61.4083 3.84599C61.6652 3.67902 61.8365 3.57974 62.0258 3.48497C62.1115 3.44436 62.1926 3.39471 62.2061 3.38118C62.2196 3.36313 62.3504 3.28642 62.4991 3.20067C62.6479 3.11493 62.7786 3.03821 62.7921 3.02016C62.8056 3.00662 62.8823 2.96601 62.9634 2.93442C63.04 2.89832 63.1077 2.8577 63.1077 2.83965C63.1077 2.8216 63.1437 2.79453 63.1888 2.77647C63.2294 2.76293 63.3691 2.69073 63.4908 2.61401C63.617 2.54181 63.7883 2.43802 63.874 2.38837C63.9596 2.33874 64.1129 2.24397 64.212 2.1853C64.3112 2.12664 64.4329 2.05444 64.4825 2.02736C64.5321 2.00028 64.6538 1.93259 64.753 1.86942C64.8521 1.81075 65.0099 1.72952 65.1001 1.6889C65.1902 1.64828 65.2759 1.58511 65.2894 1.54901C65.3029 1.51291 65.3435 1.48583 65.3795 1.48583C65.4381 1.48583 65.6725 1.35045 65.8348 1.22861C65.8619 1.20604 65.9295 1.16543 65.9926 1.13835C66.1053 1.07968 66.1549 1.0526 66.4433 0.872101C66.6146 0.763794 67.0113 0.538155 67.2457 0.416313C67.3223 0.375694 67.39 0.326057 67.39 0.30349C67.39 0.285439 67.417 0.267387 67.4486 0.267387C67.4801 0.267387 67.5522 0.235802 67.6063 0.195183C67.6875 0.13652 67.701 0.109444 67.6559 0.0598068C67.6108 0.00565338 64.8837 -0.00337219 48.4622 0.00113678L29.3225 0.00565338L29.1422 0.104935Z" fill="black"/>
<path d="M98.6507 21.5763C98.6012 21.6034 98.5516 21.6395 98.5381 21.6575C98.5245 21.6711 98.4479 21.7117 98.3713 21.7433C98.2901 21.7794 98.2225 21.8155 98.2225 21.8335C98.2225 21.8516 98.1504 21.8922 98.0648 21.9238C97.9791 21.9554 97.907 22.0005 97.907 22.0231C97.907 22.0456 97.8754 22.0637 97.8394 22.0637C97.8033 22.0637 97.7312 22.1043 97.6816 22.1539C97.632 22.2036 97.5644 22.2442 97.5328 22.2442C97.5013 22.2442 97.4292 22.2848 97.3751 22.3344C97.321 22.3841 97.2534 22.4247 97.2173 22.4247C97.1858 22.4247 97.1181 22.4608 97.0686 22.5014C96.9604 22.5962 96.7756 22.709 96.5547 22.8128C96.469 22.8534 96.3879 22.8985 96.3744 22.9166C96.3608 22.9301 96.2932 22.9753 96.2166 23.0114C96.1445 23.0475 96.0723 23.0881 96.0588 23.1016C96.0318 23.1287 95.7433 23.2911 95.5179 23.404C95.4323 23.4491 95.3421 23.5123 95.3241 23.5393C95.306 23.5709 95.261 23.598 95.2249 23.598C95.1934 23.598 95.1348 23.6251 95.1032 23.6567C95.0716 23.6883 94.977 23.7469 94.9004 23.783C94.8192 23.8146 94.7516 23.8552 94.7516 23.8733C94.7516 23.8868 94.6795 23.9229 94.5938 23.959C94.5082 23.9951 94.4361 24.0358 94.4361 24.0538C94.4361 24.0719 94.3775 24.108 94.3008 24.135C94.2287 24.1576 94.1656 24.1982 94.1656 24.2253C94.1656 24.2478 94.1025 24.2794 94.0259 24.2975C93.9492 24.3155 93.8771 24.3562 93.8681 24.3877C93.8546 24.4193 93.796 24.4599 93.7374 24.4735C93.6788 24.487 93.6021 24.5276 93.5706 24.5592C93.539 24.5908 93.4624 24.6405 93.3993 24.672C93.3362 24.7036 93.2055 24.7713 93.1063 24.8255C93.0071 24.8751 92.917 24.9338 92.9035 24.9518C92.8899 24.9699 92.7502 25.0511 92.5879 25.1323C92.4256 25.2136 92.2859 25.2948 92.2724 25.3083C92.2498 25.3354 92.1101 25.4212 91.7314 25.6423C91.6458 25.6919 91.5151 25.7686 91.4384 25.8138C91.3663 25.8589 91.2626 25.9221 91.2131 25.9446C91.1635 25.9717 91.0418 26.0439 90.9426 26.1026C90.8434 26.1658 90.6902 26.2515 90.6045 26.2921C90.5189 26.3372 90.4332 26.3914 90.4197 26.4095C90.3882 26.4546 90.1357 26.5945 89.9644 26.6667C89.8923 26.6983 89.8382 26.7389 89.8382 26.7569C89.8382 26.7795 89.7661 26.8201 89.6805 26.8472C89.5948 26.8743 89.5227 26.9149 89.5227 26.9374C89.5227 26.9555 89.4686 26.9961 89.401 27.0232C89.3288 27.0548 89.2026 27.1225 89.108 27.1766C88.6482 27.4564 88.3281 27.6459 88.1884 27.7181C88.1028 27.7588 88.0351 27.8174 88.0351 27.84C88.0351 27.8671 87.9991 27.8851 87.9585 27.8851C87.9134 27.8851 87.8278 27.9257 87.7647 27.9754C87.7016 28.025 87.6385 28.0656 87.6204 28.0656C87.5889 28.0656 87.1291 28.3364 87.0885 28.3815C87.075 28.3951 86.9353 28.4718 86.773 28.5575C86.6107 28.6433 86.471 28.7245 86.4575 28.738C86.4034 28.8012 85.9481 29.0584 85.8895 29.0584C85.8534 29.0584 85.8264 29.0765 85.8264 29.0945C85.8264 29.1171 85.7588 29.1667 85.6821 29.2073C85.3711 29.3698 84.9474 29.6135 84.9248 29.6451C84.9113 29.6586 84.8347 29.7038 84.7581 29.7399C84.6769 29.776 84.6093 29.8166 84.6093 29.8346C84.6093 29.8482 84.5417 29.8888 84.456 29.9158C84.3704 29.9429 84.2893 29.9926 84.2757 30.0287C84.2622 30.0648 84.2216 30.0964 84.1901 30.0964C84.154 30.0964 84.0819 30.137 84.0233 30.1866C83.9647 30.2363 83.8926 30.2769 83.861 30.2769C83.8295 30.2769 83.6401 30.3761 83.4373 30.5025C83.2345 30.6243 83.0632 30.7281 83.0541 30.7281C83.0451 30.7281 82.9054 30.8094 82.7521 30.9087C82.5944 31.0079 82.4456 31.0892 82.4186 31.0892C82.3915 31.0892 82.3329 31.1298 82.2878 31.1794C82.2428 31.2291 82.1706 31.2697 82.1211 31.2697C82.076 31.2697 82.0399 31.2877 82.0399 31.3103C82.0399 31.3328 81.9723 31.3825 81.8957 31.4231C81.8145 31.4682 81.6658 31.5495 81.5666 31.6081C81.4674 31.6668 81.3322 31.739 81.2646 31.7706C81.1925 31.7977 81.1384 31.8383 81.1384 31.8563C81.1384 31.8789 81.0663 31.9195 80.9806 31.9511C80.895 31.9827 80.8228 32.0233 80.8228 32.0413C80.8228 32.0594 80.7823 32.091 80.7327 32.1045C80.6831 32.1181 80.6155 32.1587 80.5884 32.1858C80.5569 32.2173 80.4532 32.276 80.3631 32.3166C80.2684 32.3618 80.1918 32.4159 80.1918 32.443C80.1918 32.4655 80.1557 32.4881 80.1106 32.4881C80.061 32.4881 79.9799 32.5287 79.9213 32.5784C79.8627 32.628 79.7906 32.6686 79.7545 32.6686C79.723 32.6686 79.6824 32.6957 79.6689 32.7318C79.6553 32.7679 79.5877 32.813 79.5156 32.8266C79.4435 32.8401 79.3623 32.8852 79.3308 32.9213C79.3037 32.9574 79.2632 32.9845 79.2451 32.9845C79.2271 32.9845 79.0333 33.0973 78.8124 33.2327C78.5915 33.3681 78.3436 33.5125 78.267 33.5531C78.1858 33.5937 78.1182 33.6434 78.1182 33.6659C78.1182 33.6885 78.0867 33.7066 78.0506 33.7066C77.983 33.7066 77.8027 33.7923 77.7576 33.8464C77.7396 33.869 76.7299 34.4557 76.3692 34.6542C76.3016 34.6903 76.2385 34.7309 76.225 34.7445C76.2115 34.758 76.1439 34.7986 76.0672 34.8347C75.8193 34.9611 75.7337 35.0965 75.5083 35.7373C75.4767 35.823 75.4271 35.9539 75.4046 36.0306C75.3776 36.1028 75.328 36.2247 75.2964 36.3014C75.1747 36.5857 75.0079 37.0505 75.0079 37.1046C75.0034 37.1317 74.9674 37.24 74.9178 37.3393C74.8682 37.4386 74.8321 37.5469 74.8276 37.5785C74.8276 37.6146 74.8006 37.7048 74.7645 37.7816C74.733 37.8628 74.6383 38.1065 74.5572 38.3321C74.4805 38.5532 74.3859 38.8014 74.3498 38.8827C74.3137 38.9594 74.2867 39.0496 74.2867 39.0857C74.2867 39.1173 74.2551 39.2031 74.2191 39.2753C74.183 39.3475 74.1199 39.519 74.0793 39.6589C74.0388 39.7987 73.9802 39.9747 73.9441 40.056C73.908 40.1327 73.881 40.2229 73.881 40.259C73.881 40.2906 73.8404 40.3944 73.7908 40.4892C73.7413 40.5794 73.7007 40.6968 73.7007 40.7419C73.7007 40.7915 73.6736 40.8592 73.6376 40.8908C73.606 40.9269 73.561 41.0262 73.5429 41.112C73.5249 41.1977 73.4708 41.3511 73.4257 41.4549C73.3761 41.5587 73.3401 41.6715 73.3401 41.7031C73.3356 41.7347 73.2995 41.843 73.2499 41.9423C73.2003 42.0416 73.1598 42.1544 73.1598 42.1905C73.1598 42.2266 73.1192 42.3394 73.0696 42.4387C73.02 42.538 72.984 42.6643 72.9795 42.7185C72.9795 42.7726 72.9479 42.8448 72.9118 42.8855C72.8758 42.9216 72.8442 42.9802 72.8442 43.0208C72.8442 43.084 72.8127 43.1698 72.682 43.4766C72.6504 43.5488 72.6098 43.6707 72.5918 43.7474C72.5738 43.8196 72.5467 43.9008 72.5287 43.9279C72.5107 43.9505 72.4836 44.0317 72.4656 44.1084C72.4476 44.1806 72.407 44.3025 72.3709 44.3792C72.2357 44.6951 72.123 45.0064 72.123 45.0606C72.123 45.0967 72.105 45.1599 72.0824 45.205C71.9968 45.363 71.9021 45.6021 71.8706 45.733C71.8525 45.8052 71.8255 45.8864 71.8075 45.9135C71.7849 45.9361 71.7444 46.0489 71.7128 46.1617C71.6812 46.2745 71.6452 46.3828 71.6272 46.4099C71.6136 46.4325 71.5731 46.5453 71.537 46.6581C71.5054 46.7709 71.4423 46.9469 71.3973 47.0507C71.3477 47.159 71.3116 47.2809 71.3116 47.326C71.3116 47.3711 71.2891 47.4298 71.2575 47.4614C71.2305 47.4885 71.1448 47.7006 71.0682 47.9307C70.9871 48.1609 70.9149 48.3684 70.9014 48.3955C70.8834 48.4181 70.8473 48.5219 70.8203 48.6212C70.7617 48.8062 70.6986 48.9686 70.631 49.104C70.6084 49.1491 70.5904 49.2259 70.5904 49.28C70.5904 49.3297 70.5588 49.4019 70.5228 49.438C70.4867 49.4786 70.4552 49.5598 70.4552 49.623C70.4552 49.6907 70.4281 49.7764 70.3966 49.8125C70.3605 49.8531 70.3064 49.984 70.2748 50.1104C70.2433 50.2322 70.2027 50.354 70.1847 50.3811C70.1667 50.4037 70.1261 50.5075 70.0945 50.6068C70.0675 50.706 70.0134 50.8504 69.9773 50.9317C69.9413 51.0084 69.9142 51.0896 69.9142 51.1077C69.9142 51.1438 69.788 51.4867 69.6753 51.7575C69.5716 52.0147 69.4094 52.4705 69.3643 52.6465C69.3372 52.7548 69.2967 52.8406 69.2786 52.8406C69.2606 52.8406 69.2336 52.9218 69.2155 53.0166C69.202 53.1158 69.1569 53.2287 69.1254 53.2783C69.0893 53.3234 69.0578 53.3911 69.0578 53.4317C69.0578 53.4723 69.0172 53.6168 68.9631 53.7476C68.909 53.883 68.8504 54.0319 68.8324 54.0816C68.8144 54.1312 68.7648 54.2485 68.7242 54.3433C68.6836 54.4381 68.6521 54.5373 68.6521 54.5689C68.6521 54.6005 68.625 54.6772 68.589 54.7404C68.5574 54.8036 68.5168 54.9164 68.4988 54.9886C68.4808 55.0608 68.4357 55.1782 68.4042 55.2549C68.3726 55.3271 68.3185 55.4715 68.2915 55.5708C68.2644 55.67 68.2013 55.837 68.1517 55.9408C68.1066 56.0491 68.0661 56.1845 68.0661 56.2432C68.0661 56.3018 68.0345 56.374 67.9985 56.4056C67.9624 56.4372 67.9308 56.4914 67.9308 56.5275C67.9308 56.5636 67.8903 56.6764 67.8452 56.7802C67.7956 56.884 67.746 57.0464 67.728 57.1367C67.71 57.2315 67.6829 57.3082 67.6649 57.3082C67.6469 57.3082 67.6063 57.4029 67.5747 57.5203C67.5432 57.6421 67.4891 57.8001 67.453 57.8813C67.417 57.958 67.3764 58.0844 67.3629 58.1611C67.3448 58.2378 67.3043 58.3235 67.2727 58.3506C67.2367 58.3777 67.2096 58.4454 67.2096 58.4995C67.2096 58.5537 67.1555 58.7071 67.0879 58.838C66.9617 59.0772 66.858 59.1629 66.4433 59.3705C66.3577 59.4156 66.2765 59.4653 66.263 59.4788C66.2405 59.5059 65.7221 59.8082 65.3164 60.0294C65.1812 60.1061 65.0595 60.1783 65.0459 60.1963C65.0324 60.2144 64.8837 60.3046 64.7169 60.3994C64.5456 60.4942 64.3517 60.6115 64.2886 60.6702C64.221 60.7243 64.0452 60.8371 63.8965 60.9184C63.7477 61.0041 63.617 61.0853 63.6035 61.0989C63.5764 61.1395 63.3601 61.2523 63.1437 61.3516C63.049 61.3967 62.9724 61.4418 62.9724 61.4599C62.9724 61.4779 62.9048 61.5186 62.8281 61.5547C62.747 61.5862 62.6704 61.6269 62.6569 61.6404C62.6343 61.6765 62.445 61.7803 62.2196 61.8886C62.1385 61.9247 62.0709 61.9743 62.0709 61.9969C62.0709 62.0195 62.0213 62.0511 61.9627 62.0646C61.8996 62.0781 61.8229 62.1187 61.7914 62.1503C61.7598 62.1819 61.6832 62.2316 61.6201 62.2632C61.4803 62.3354 61.2459 62.4662 61.0251 62.6016C60.8087 62.728 60.1596 63.1116 59.9522 63.2334C59.8666 63.283 59.7404 63.3552 59.6728 63.3959C59.0913 63.7433 58.7397 63.9419 58.6946 63.9419C58.6675 63.9419 58.645 63.9599 58.645 63.987C58.645 64.0096 58.5774 64.0637 58.5008 64.0998C58.2483 64.2217 58.0861 64.3165 58.0229 64.3796C57.9914 64.4112 57.9148 64.4518 57.8517 64.4654C57.7931 64.4789 57.7435 64.5105 57.7435 64.5286C57.7435 64.5511 57.6713 64.5917 57.5857 64.6188C57.5001 64.6459 57.4279 64.6865 57.4279 64.7091C57.4279 64.7271 57.3693 64.7677 57.2927 64.7948C57.2206 64.8174 57.1575 64.858 57.1575 64.8805C57.1575 64.9076 57.1079 64.9392 57.0448 64.9527C56.9501 64.9753 56.7112 65.1152 56.5489 65.2371C56.5264 65.2596 56.4137 65.3183 56.301 65.3769C56.0711 65.4943 55.9088 65.589 55.6474 65.7515C55.5482 65.8147 55.3274 65.932 55.1516 66.0178C54.9803 66.1035 54.818 66.1892 54.7909 66.2118C54.6828 66.293 54.4078 66.4555 54.1689 66.5818C54.0291 66.6541 53.9119 66.7308 53.9119 66.7488C53.9119 66.7624 53.8398 66.803 53.7542 66.83C53.6685 66.8571 53.5964 66.8977 53.5964 66.9203C53.5964 66.9384 53.5423 66.979 53.4747 67.006C53.4026 67.0376 53.2673 67.1098 53.1682 67.1685C53.069 67.2272 52.9293 67.3129 52.8526 67.3535C52.7805 67.3941 52.7084 67.4438 52.6949 67.4573C52.6813 67.4709 52.5416 67.5521 52.3793 67.6378C52.217 67.7236 52.0773 67.8048 52.0638 67.8183C52.0367 67.8499 51.8925 67.9357 51.6581 68.0575C51.5724 68.1026 51.4012 68.2064 51.2749 68.2832C51.1532 68.3599 50.9369 68.4817 50.8016 68.5584C50.6664 68.6306 50.5267 68.7119 50.4951 68.7389C50.414 68.8021 50.1706 68.9375 50.0263 68.9962C49.9542 69.0278 49.9001 69.0684 49.9001 69.0864C49.9001 69.109 49.828 69.1496 49.7423 69.1812C49.6567 69.2128 49.5846 69.2534 49.5846 69.2714C49.5846 69.2895 49.5169 69.3256 49.4403 69.3617C49.3592 69.3933 49.2825 69.4339 49.269 69.452C49.2555 69.4655 49.1338 69.5422 48.9986 69.6144C48.7777 69.7317 48.4171 69.9484 48.1601 70.1153C48.115 70.1469 48.0024 70.2056 47.9167 70.2417C47.8311 70.2823 47.7499 70.3274 47.7364 70.3455C47.7229 70.3635 47.52 70.4854 47.2856 70.6207C47.0512 70.7561 46.8484 70.878 46.8349 70.8915C46.8213 70.9051 46.7447 70.9457 46.6681 70.9773C46.5869 71.0134 46.5193 71.054 46.5193 71.072C46.5193 71.0901 46.4697 71.1217 46.4111 71.1352C46.348 71.1487 46.2714 71.1894 46.2398 71.2209C46.1632 71.2886 45.9694 71.4015 45.744 71.5098C45.6493 71.5549 45.5727 71.6045 45.5727 71.6226C45.5727 71.6451 45.5547 71.6587 45.5321 71.6587C45.5096 71.6587 45.3563 71.7399 45.1896 71.8437C45.0228 71.943 44.8199 72.0648 44.7388 72.11C44.4323 72.2814 44.3782 72.313 44.3241 72.3672C44.2925 72.3943 44.1934 72.4439 44.1077 72.4755C44.0221 72.5071 43.9499 72.5477 43.9499 72.5657C43.9499 72.5838 43.8823 72.6199 43.8057 72.656C43.7246 72.6876 43.6479 72.7282 43.6344 72.7417C43.6209 72.7598 43.5578 72.8004 43.4902 72.8365C43.2603 72.9583 42.7554 73.2517 42.7329 73.2788C42.7193 73.2968 42.6562 73.3329 42.5886 73.36C42.5165 73.3916 42.4624 73.4367 42.4624 73.4638C42.4624 73.4863 42.4263 73.5089 42.3768 73.5089C42.3317 73.5089 42.246 73.545 42.1874 73.5901C42.1288 73.6307 42.0297 73.6939 41.9711 73.7255C41.5338 73.9737 40.8532 74.3708 40.6368 74.5062C40.5376 74.5694 40.3483 74.6777 40.2131 74.7454C40.0778 74.8131 39.9381 74.8988 39.9065 74.9349C39.8705 74.971 39.7939 75.0116 39.7307 75.0252C39.6721 75.0387 39.6226 75.0703 39.6226 75.0884C39.6226 75.1109 39.4918 75.1922 39.3296 75.2689C39.1673 75.3456 39.0366 75.4268 39.0366 75.4494C39.0366 75.4674 38.987 75.499 38.9284 75.5126C38.8653 75.5261 38.7886 75.5667 38.7571 75.5983C38.703 75.6525 38.6444 75.6886 38.2612 75.8871C38.1801 75.9277 38.1035 75.9729 38.0899 75.9909C38.0764 76.0044 37.8736 76.1263 37.6392 76.2617C37.4048 76.3971 37.2019 76.5144 37.1884 76.5279C37.1749 76.5415 37.1073 76.5866 37.0306 76.6227C36.9585 76.6588 36.8864 76.6994 36.8729 76.7175C36.8593 76.731 36.7827 76.7671 36.7061 76.7987C36.6249 76.8348 36.5573 76.8754 36.5573 76.8935C36.5573 76.916 36.5032 76.9521 36.4356 76.9792C36.3635 77.0063 36.2328 77.074 36.1426 77.1326C36.0525 77.1868 35.7459 77.3628 35.471 77.5252C35.1915 77.6877 34.8715 77.8727 34.7588 77.9449C34.6461 78.0126 34.5199 78.0803 34.4838 78.0984C34.4477 78.1164 34.4072 78.139 34.3936 78.157C34.3801 78.1751 34.1637 78.3059 33.9068 78.4549C33.6499 78.5993 33.3659 78.7662 33.2757 78.8204C33.1856 78.8745 33.0549 78.9422 32.9872 78.9738C32.9151 79.0009 32.861 79.0415 32.861 79.0596C32.861 79.0821 32.7889 79.1227 32.7033 79.1498C32.6176 79.1769 32.5455 79.2175 32.5455 79.2401C32.5455 79.2626 32.4734 79.3033 32.3877 79.3303C32.3021 79.3574 32.2299 79.398 32.2299 79.4161C32.2299 79.4341 32.1443 79.4838 32.0406 79.5334C31.9324 79.5785 31.8378 79.6282 31.8243 79.6462C31.8107 79.6598 31.7206 79.7184 31.6214 79.7771C31.3464 79.9396 31.1391 80.0614 31.0129 80.1291C30.9498 80.1652 30.819 80.2419 30.7199 80.3006C30.6207 80.3592 30.4855 80.4314 30.4179 80.463C30.3457 80.4901 30.2916 80.5262 30.2916 80.5443C30.2916 80.5623 30.1564 80.6435 29.9896 80.7293C29.8183 80.815 29.6741 80.9008 29.6696 80.9233C29.6606 80.9414 29.5884 80.9865 29.5118 81.0226C29.3405 81.1038 28.8852 81.3611 28.7726 81.4423C28.6779 81.51 28.5111 81.6048 28.3533 81.686C28.2902 81.7131 28.2091 81.7627 28.173 81.7943C28.137 81.8214 27.9927 81.9071 27.8575 81.9793C27.5149 82.1688 27.2535 82.3223 27.2264 82.3539C27.2129 82.3674 27.1363 82.408 27.0596 82.4396C26.9785 82.4757 26.9109 82.5163 26.9109 82.5344C26.9109 82.5524 26.8748 82.5795 26.8342 82.5976C26.7892 82.6111 26.6539 82.6833 26.5277 82.76C26.406 82.8322 26.2302 82.9315 26.1446 82.9721C26.0589 83.0172 25.9778 83.0669 25.9643 83.0804C25.9507 83.094 25.7479 83.2113 25.5135 83.3467C25.2791 83.4821 25.0762 83.6039 25.0627 83.6174C25.0492 83.6355 24.9726 83.6761 24.8959 83.7122C24.8148 83.7483 24.7472 83.7889 24.7472 83.8025C24.7472 83.8205 24.6931 83.8566 24.6255 83.8837C24.5534 83.9108 24.4181 83.983 24.319 84.0416C24.2198 84.1048 24.0665 84.1996 23.9809 84.2492C23.8952 84.2989 23.742 84.3936 23.6428 84.4523C23.5436 84.511 23.4084 84.5832 23.3408 84.6148C23.2687 84.6418 23.2146 84.6824 23.2146 84.7005C23.2146 84.7231 23.1424 84.7637 23.0568 84.7953C22.9712 84.8269 22.899 84.8675 22.899 84.8855C22.899 84.9036 22.8269 84.9442 22.7413 84.9713C22.6556 84.9983 22.5835 85.0389 22.5835 85.0615C22.5835 85.0796 22.5249 85.1202 22.4483 85.1518C22.3761 85.1834 22.313 85.224 22.313 85.242C22.313 85.2646 22.2499 85.2917 22.1733 85.3097C22.0967 85.3278 22.0245 85.3684 22.0155 85.4C22.002 85.4316 21.9434 85.4722 21.8848 85.4857C21.8262 85.4992 21.7496 85.5399 21.718 85.5715C21.6865 85.603 21.6098 85.6527 21.5467 85.6843C21.4836 85.7159 21.3529 85.7881 21.2537 85.8512C21.1546 85.9099 21.0374 85.9731 20.9968 85.9911C20.9517 86.0047 20.9156 86.0588 20.9156 86.104C20.9156 86.1897 21.4836 86.1897 46.9746 86.1897C72.9028 86.1897 73.3852 86.1852 73.3852 86.0543C73.3852 86.0363 73.4483 85.9956 73.5204 85.9641C73.597 85.9325 73.6556 85.8919 73.6556 85.8738C73.6556 85.8512 73.7232 85.8106 73.8089 85.7836C73.8945 85.7565 73.9757 85.7068 73.9892 85.6707C74.0027 85.6346 74.0523 85.603 74.0974 85.603C74.1424 85.603 74.2281 85.5624 74.2867 85.5128C74.3453 85.4631 74.4174 85.4225 74.449 85.4225C74.4805 85.4225 74.5256 85.3955 74.5436 85.3594C74.5617 85.3278 74.6563 85.2736 74.751 85.2465C74.8411 85.2149 74.9178 85.1743 74.9178 85.1518C74.9178 85.1337 74.9809 85.0931 75.053 85.0615C75.1296 85.0299 75.1882 84.9893 75.1882 84.9713C75.1882 84.9487 75.2423 84.9126 75.3144 84.8855C75.5263 84.7953 75.7832 84.6509 75.8509 84.5832C75.8869 84.5471 75.932 84.52 75.9545 84.52C75.9771 84.52 76.0222 84.4929 76.0537 84.4613C76.0898 84.4342 76.2475 84.3395 76.4098 84.2537C76.5676 84.168 76.7073 84.0868 76.7208 84.0732C76.7344 84.0597 76.8425 83.9965 76.9643 83.9333C77.3068 83.7618 77.4195 83.6987 77.4421 83.6626C77.4556 83.6445 77.5322 83.6039 77.6134 83.5678C77.69 83.5317 77.7576 83.4911 77.7576 83.4775C77.7576 83.4595 77.8117 83.4234 77.8838 83.3963C77.9514 83.3692 78.1363 83.2654 78.2985 83.1662C78.4608 83.0669 78.6186 82.9857 78.6501 82.9857C78.6772 82.9857 78.7042 82.9676 78.7042 82.9405C78.7042 82.918 78.7718 82.8638 78.853 82.8277C79.0243 82.7465 79.1685 82.6607 79.2497 82.5976C79.2857 82.5705 79.4255 82.4847 79.5607 82.4125C79.8852 82.232 80.1647 82.0696 80.1918 82.038C80.2053 82.0244 80.2774 81.9838 80.3495 81.9477C80.4262 81.9116 80.4938 81.871 80.5073 81.853C80.5208 81.8394 80.5975 81.8033 80.6786 81.7717C80.7552 81.7356 80.8228 81.695 80.8228 81.6724C80.8228 81.6499 80.8499 81.6318 80.8814 81.6318C80.913 81.6318 80.9851 81.5912 81.0392 81.5416C81.0933 81.4919 81.1654 81.4513 81.206 81.4513C81.2421 81.4513 81.2736 81.4288 81.2736 81.4062C81.2736 81.3791 81.3142 81.3611 81.3638 81.3611C81.4133 81.3611 81.4539 81.343 81.4539 81.325C81.4539 81.3024 81.5215 81.2528 81.6027 81.2121C81.9092 81.0497 82.3329 80.806 82.3555 80.7744C82.369 80.7609 82.4456 80.7157 82.5267 80.6796C82.6034 80.6435 82.671 80.6029 82.671 80.5849C82.671 80.5623 82.6935 80.5488 82.7206 80.5488C82.7476 80.5488 82.8288 80.5082 82.9009 80.454C82.9775 80.4044 83.1488 80.2961 83.2931 80.2239C83.4328 80.1471 83.559 80.0749 83.5725 80.0569C83.5861 80.0388 83.6447 80.0027 83.7078 79.9711C83.7709 79.9396 83.9016 79.8628 84.0008 79.8042C84.0999 79.741 84.2532 79.6553 84.3388 79.6146C84.4245 79.5695 84.5237 79.5063 84.5552 79.4793C84.5868 79.4477 84.6634 79.4071 84.722 79.3935C84.7806 79.38 84.8392 79.3394 84.8527 79.3033C84.8662 79.2672 84.9203 79.2401 84.9699 79.2401C85.0195 79.2401 85.0601 79.213 85.0601 79.1769C85.0601 79.1453 85.1187 79.1047 85.1908 79.0912C85.2629 79.0776 85.3486 79.037 85.3801 79.0009C85.4162 78.9693 85.5108 78.9107 85.592 78.8745C85.6686 78.843 85.7362 78.7978 85.7362 78.7843C85.7362 78.7662 85.7993 78.7301 85.8715 78.6986C85.9481 78.667 86.0067 78.6263 86.0067 78.6083C86.0067 78.5857 86.0698 78.5587 86.1464 78.5406C86.2231 78.5226 86.2952 78.4819 86.3042 78.4504C86.3177 78.4188 86.3763 78.3781 86.4349 78.3646C86.4935 78.3511 86.5701 78.3105 86.6017 78.2789C86.6333 78.2473 86.7189 78.1931 86.791 78.157C87.048 78.0262 87.0885 77.9991 87.0885 77.9675C87.0885 77.9449 87.1291 77.9314 87.1787 77.9314C87.2283 77.9314 87.2688 77.9133 87.2688 77.8908C87.2688 77.8682 87.3364 77.8276 87.4176 77.7915C87.4942 77.7599 87.5754 77.7103 87.5979 77.6787C87.6159 77.6471 87.6926 77.611 87.7647 77.5929C87.8413 77.5749 87.8999 77.5478 87.8999 77.5252C87.8999 77.5072 87.963 77.4666 88.0351 77.435C88.1118 77.4034 88.1704 77.3628 88.1704 77.3492C88.1704 77.3312 88.2425 77.2906 88.3281 77.2545C88.4138 77.2184 88.4859 77.1778 88.4859 77.1642C88.4859 77.1507 88.558 77.1101 88.6437 77.074C88.7293 77.0379 88.8015 76.9972 88.8015 76.9837C88.8015 76.9657 88.8781 76.9205 88.9727 76.8799C89.1891 76.7806 89.4866 76.6137 89.5587 76.546C89.5858 76.5189 89.6534 76.4783 89.703 76.4647C89.7526 76.4512 89.7931 76.4196 89.7931 76.3971C89.7931 76.379 89.8427 76.3474 89.9013 76.3339C89.9644 76.3203 90.0411 76.2797 90.0726 76.2481C90.1042 76.2165 90.1808 76.1669 90.2439 76.1353C90.307 76.1037 90.4377 76.0315 90.5369 75.9729C90.6361 75.9097 90.7893 75.8285 90.875 75.7833C91.1815 75.6254 91.2807 75.481 91.6458 74.6371C91.6954 74.5243 91.7765 74.3438 91.8306 74.2309C92.0244 73.8113 92.0876 73.6578 92.2093 73.3284C92.2724 73.1434 92.3535 72.9268 92.3851 72.8546C92.4166 72.7778 92.4572 72.647 92.4752 72.5612C92.5068 72.4123 92.5924 72.1776 92.6826 72.0107C92.7051 71.9655 92.7231 71.8708 92.7231 71.7941C92.7231 71.7083 92.7457 71.6587 92.7862 71.6587C92.8268 71.6587 92.8629 71.591 92.8809 71.4782C92.8989 71.3789 92.9305 71.2886 92.9485 71.2751C92.9711 71.2616 93.0116 71.1397 93.0432 71.0043C93.0747 70.8689 93.1108 70.7561 93.1288 70.7561C93.1469 70.7561 93.1874 70.6343 93.219 70.4854C93.2505 70.3364 93.2956 70.2146 93.3136 70.2146C93.3362 70.2146 93.3542 70.174 93.3542 70.1289C93.3542 70.0792 93.3768 70.0251 93.3993 70.0115C93.4263 69.998 93.4444 69.9258 93.4444 69.8491C93.4444 69.7769 93.4624 69.7182 93.4894 69.7182C93.512 69.7182 93.5526 69.637 93.5796 69.5422C93.6066 69.4429 93.6562 69.3075 93.6923 69.2353C93.7284 69.1676 93.7734 69.0413 93.787 68.9601C93.8005 68.8833 93.832 68.8157 93.8501 68.8157C93.8681 68.8157 93.9087 68.6938 93.9402 68.5449C93.9718 68.396 94.0123 68.2741 94.0259 68.2741C94.0439 68.2741 94.0845 68.1658 94.1205 68.035C94.1521 67.9086 94.2062 67.7597 94.2377 67.71C94.2738 67.6604 94.3008 67.5792 94.3008 67.525C94.3008 67.4709 94.3324 67.4032 94.3684 67.3716C94.4045 67.34 94.4361 67.2858 94.4361 67.2452C94.4361 67.1595 94.5352 66.8616 94.5758 66.83C94.5893 66.8165 94.6299 66.6992 94.6614 66.5683C94.6885 66.442 94.7291 66.3336 94.7471 66.3336C94.7651 66.3336 94.8057 66.2208 94.8372 66.0854C94.8688 65.9501 94.9094 65.8282 94.9319 65.8147C94.9499 65.8011 94.9815 65.7199 94.9995 65.6297C95.013 65.5394 95.0581 65.4356 95.0942 65.3995C95.1302 65.3634 95.1573 65.2732 95.1573 65.201C95.1573 65.1287 95.1798 65.0701 95.2024 65.0701C95.2294 65.0701 95.2474 65.0295 95.2474 64.9843C95.2474 64.9347 95.2655 64.8851 95.2835 64.8715C95.306 64.858 95.3511 64.7361 95.3827 64.5962C95.4142 64.4609 95.4548 64.348 95.4728 64.348C95.4909 64.348 95.5224 64.2713 95.5404 64.1766C95.5585 64.0863 95.599 63.9464 95.6306 63.8742C95.6622 63.7975 95.7162 63.6576 95.7433 63.5583C95.7748 63.459 95.8154 63.3598 95.838 63.3372C95.8605 63.3101 95.8785 63.2469 95.8785 63.1883C95.8785 63.1296 95.9011 63.0845 95.9236 63.0845C95.9506 63.0845 95.9687 63.0258 95.9687 62.9536C95.9687 62.8814 95.9957 62.8002 96.0318 62.7731C96.0678 62.7415 96.1084 62.6377 96.1264 62.5384C96.1445 62.4437 96.1715 62.3624 96.1896 62.3624C96.2076 62.3624 96.2482 62.2541 96.2797 62.1233C96.3158 61.9969 96.3563 61.866 96.3699 61.8435C96.3879 61.8164 96.4285 61.7171 96.46 61.6178C96.5186 61.4283 96.5817 61.2658 96.6493 61.135C96.6719 61.0898 96.6899 61.0041 96.6899 60.9409C96.6899 60.8777 96.7079 60.8281 96.735 60.8281C96.7575 60.8281 96.7981 60.7424 96.8251 60.6341C96.8522 60.5303 96.8928 60.4039 96.9153 60.3543C96.9829 60.2189 97.321 59.2532 97.3751 59.0456C97.4021 58.9463 97.4517 58.8335 97.4833 58.7929C97.5193 58.7568 97.5464 58.6846 97.5464 58.6439C97.5464 58.5988 97.5734 58.5086 97.6095 58.4454C97.6455 58.3777 97.7402 58.1295 97.8168 57.8948C97.898 57.6602 97.9926 57.4029 98.0242 57.3217C98.0602 57.245 98.0873 57.1593 98.0873 57.1277C98.0873 57.0961 98.1143 57.0103 98.1504 56.9336C98.182 56.8524 98.2541 56.6674 98.3082 56.5184C98.3668 56.3695 98.4254 56.2071 98.4479 56.1574C98.5245 55.9679 98.6372 55.652 98.7499 55.3226C98.8085 55.1375 98.8806 54.9435 98.9032 54.8939C98.9212 54.8442 98.9843 54.6727 99.0384 54.5103C99.0925 54.3478 99.1511 54.1989 99.1736 54.1763C99.1962 54.1493 99.2142 54.0951 99.2142 54.05C99.2142 54.0048 99.2548 53.892 99.3044 53.8018C99.354 53.707 99.3945 53.5987 99.3945 53.5626C99.3945 53.5265 99.4216 53.4408 99.4576 53.3731C99.4937 53.3054 99.5478 53.1384 99.5793 52.9985C99.6109 52.8631 99.6469 52.7503 99.665 52.7503C99.683 52.7503 99.7236 52.6285 99.7551 52.4841C99.7867 52.3351 99.8408 52.2043 99.8723 52.1907C99.9084 52.1772 99.9354 52.1095 99.9354 52.0373C99.9354 51.9651 99.967 51.8793 99.9986 51.8478C100.035 51.8207 100.089 51.6853 100.12 51.5499C100.152 51.4145 100.188 51.3062 100.206 51.3062C100.224 51.3062 100.255 51.2295 100.274 51.1347C100.292 51.0445 100.332 50.9046 100.364 50.8324C100.395 50.7557 100.445 50.6158 100.476 50.5165C100.544 50.2818 100.576 50.1961 100.693 49.9524C100.747 49.8396 100.792 49.6952 100.792 49.623C100.792 49.5553 100.814 49.5011 100.837 49.5011C100.864 49.5011 100.882 49.4605 100.882 49.4109C100.882 49.3612 100.9 49.3206 100.918 49.3206C100.941 49.3206 100.981 49.2123 101.013 49.0814C101.049 48.9551 101.089 48.8242 101.107 48.8017C101.125 48.7746 101.171 48.6663 101.202 48.5535C101.234 48.4406 101.274 48.3278 101.288 48.3053C101.306 48.2782 101.333 48.197 101.351 48.1247C101.382 47.9939 101.477 47.7547 101.563 47.5968C101.585 47.5516 101.603 47.4704 101.603 47.4072C101.603 47.3486 101.63 47.2764 101.666 47.2493C101.702 47.2177 101.743 47.1139 101.761 47.0146C101.779 46.9198 101.806 46.8386 101.824 46.8386C101.842 46.8386 101.883 46.7303 101.914 46.5994C101.95 46.4731 101.991 46.3422 102.004 46.3197C102.022 46.2926 102.063 46.1933 102.095 46.094C102.126 45.9947 102.167 45.8729 102.185 45.8233C102.207 45.7736 102.248 45.6743 102.275 45.6066C102.302 45.5389 102.325 45.4442 102.325 45.3991C102.325 45.3539 102.356 45.2907 102.392 45.2592C102.428 45.2276 102.46 45.1554 102.46 45.0967C102.46 45.0425 102.487 44.9658 102.518 44.9342C102.55 44.9027 102.604 44.7763 102.636 44.6499C102.667 44.5281 102.708 44.4063 102.726 44.3792C102.744 44.3566 102.789 44.2303 102.82 44.1084C102.852 43.9821 102.897 43.8602 102.915 43.8376C102.933 43.8106 102.974 43.6887 103.005 43.5669C103.037 43.4405 103.091 43.3142 103.122 43.2826C103.154 43.251 103.181 43.1652 103.181 43.093C103.181 43.0208 103.208 42.9441 103.24 42.9261C103.276 42.908 103.33 42.7862 103.361 42.6643C103.393 42.538 103.433 42.4161 103.451 42.3936C103.469 42.3665 103.51 42.2401 103.546 42.1093C103.578 41.9829 103.618 41.8746 103.632 41.8746C103.65 41.8746 103.69 41.7618 103.722 41.6264C103.753 41.491 103.794 41.3782 103.812 41.3782C103.83 41.3782 103.862 41.306 103.88 41.2157C103.893 41.1255 103.938 40.9811 103.979 40.8863C104.064 40.6968 104.087 40.6336 104.218 40.2726C104.272 40.1237 104.339 39.9386 104.371 39.8664C104.407 39.7897 104.448 39.6589 104.466 39.5731C104.484 39.4874 104.515 39.3926 104.529 39.37C104.547 39.343 104.61 39.1805 104.664 39.009C104.723 38.833 104.786 38.6751 104.808 38.648C104.831 38.6254 104.849 38.5577 104.849 38.4946C104.849 38.4359 104.876 38.3502 104.912 38.3141C104.948 38.2734 104.998 38.1696 105.02 38.0839C105.047 37.9982 105.124 37.7816 105.187 37.6101C105.255 37.4341 105.331 37.2039 105.363 37.0911C105.394 36.9783 105.453 36.8249 105.493 36.7436C105.538 36.6624 105.57 36.5496 105.57 36.4909C105.57 36.4368 105.593 36.3646 105.624 36.333C105.674 36.2833 105.728 36.1525 105.872 35.7373C105.908 35.6245 105.967 35.471 105.998 35.3988C106.03 35.3221 106.07 35.1958 106.088 35.1145C106.106 35.0333 106.147 34.9114 106.183 34.8438C106.219 34.7761 106.246 34.6903 106.246 34.6542C106.246 34.6181 106.287 34.5098 106.336 34.4151C106.386 34.3248 106.427 34.1984 106.427 34.1353C106.427 34.0721 106.449 34.0224 106.472 34.0224C106.499 34.0224 106.517 33.9818 106.517 33.9367C106.517 33.8871 106.535 33.8374 106.557 33.8194C106.58 33.8058 106.625 33.684 106.656 33.5486C106.688 33.4132 106.724 33.3004 106.742 33.3004C106.756 33.3004 106.796 33.1921 106.828 33.0612C106.864 32.9349 106.904 32.804 106.918 32.7814C106.936 32.7544 106.976 32.6551 107.008 32.5558C107.067 32.3663 107.13 32.2038 107.197 32.0729C107.22 32.0278 107.238 31.9466 107.238 31.8834C107.238 31.8247 107.265 31.7525 107.301 31.7255C107.337 31.6939 107.378 31.5901 107.396 31.4908C107.414 31.396 107.441 31.3148 107.459 31.3148C107.477 31.3148 107.517 31.211 107.549 31.0892C107.58 30.9628 107.644 30.7823 107.693 30.683C107.738 30.5882 107.779 30.4799 107.779 30.4438C107.779 30.4123 107.819 30.2994 107.869 30.1956C107.919 30.0964 107.959 29.9565 107.959 29.8933C107.959 29.8301 107.977 29.7805 108.004 29.7805C108.027 29.7805 108.067 29.6947 108.099 29.5864C108.126 29.4826 108.162 29.3743 108.18 29.3518C108.198 29.3247 108.239 29.2164 108.27 29.1036C108.302 28.9907 108.347 28.8779 108.365 28.8554C108.383 28.8283 108.423 28.7019 108.459 28.5711C108.491 28.4447 108.532 28.3364 108.545 28.3364C108.563 28.3364 108.604 28.2191 108.635 28.0792C108.667 27.9393 108.721 27.7949 108.752 27.7588C108.789 27.7272 108.816 27.6505 108.816 27.5918C108.816 27.5331 108.847 27.4564 108.883 27.4158C108.919 27.3797 108.951 27.321 108.951 27.2804C108.951 27.2443 108.973 27.1541 109 27.0864C109.027 27.0187 109.068 26.9194 109.091 26.8698C109.109 26.8201 109.149 26.6983 109.181 26.599C109.212 26.4997 109.253 26.3959 109.271 26.3733C109.284 26.3463 109.325 26.2199 109.361 26.089C109.393 25.9627 109.433 25.8544 109.451 25.8544C109.469 25.8544 109.496 25.7732 109.514 25.6739C109.532 25.5746 109.573 25.4618 109.609 25.4302C109.645 25.3941 109.672 25.3219 109.672 25.2722C109.672 25.2181 109.69 25.1414 109.713 25.0962C109.762 24.9925 109.83 24.83 109.897 24.6359C109.929 24.5502 109.979 24.4148 110.01 24.3426C110.042 24.2659 110.082 24.1305 110.1 24.0358C110.118 23.9455 110.15 23.8688 110.168 23.8688C110.186 23.8688 110.217 23.7921 110.236 23.6973C110.263 23.5439 110.344 23.3182 110.443 23.1377C110.465 23.0926 110.483 23.0114 110.483 22.9482C110.483 22.8895 110.51 22.8173 110.547 22.7902C110.583 22.7586 110.628 22.6684 110.646 22.5917C110.659 22.5104 110.691 22.4247 110.709 22.4021C110.731 22.3751 110.767 22.2668 110.799 22.1539C110.826 22.0411 110.88 21.8832 110.916 21.8019C111.056 21.4996 111.552 21.5222 104.84 21.5222C100.377 21.5267 98.7184 21.5402 98.6507 21.5763Z" fill="black"/>
</svg>
